<?xml version="1.0" encoding="UTF-8" standalone="no"?>
<!-- Generator: Adobe Illustrator 17.1.0, SVG Export Plug-In . SVG Version: 6.00 Build 0)  -->

<svg
   xmlns:dc="http://purl.org/dc/elements/1.1/"
   xmlns:cc="http://creativecommons.org/ns#"
   xmlns:rdf="http://www.w3.org/1999/02/22-rdf-syntax-ns#"
   xmlns:svg="http://www.w3.org/2000/svg"
   xmlns="http://www.w3.org/2000/svg"
   xmlns:sodipodi="http://sodipodi.sourceforge.net/DTD/sodipodi-0.dtd"
   xmlns:inkscape="http://www.inkscape.org/namespaces/inkscape"
   version="1.1"
   id="Capa_1"
   x="0px"
   y="0px"
   viewBox="0 0 512 512"
   xml:space="preserve"
   sodipodi:docname="default.svg"
   inkscape:version="0.92.4 (unknown)"
   width="512"
   height="512"><metadata
   id="metadata39"><rdf:RDF><cc:Work
       rdf:about=""><dc:format>image/svg+xml</dc:format><dc:type
         rdf:resource="http://purl.org/dc/dcmitype/StillImage" /><dc:title></dc:title></cc:Work></rdf:RDF></metadata><defs
   id="defs37" /><sodipodi:namedview
   pagecolor="#ffffff"
   bordercolor="#666666"
   borderopacity="1"
   objecttolerance="10"
   gridtolerance="10"
   guidetolerance="10"
   inkscape:pageopacity="0"
   inkscape:pageshadow="2"
   inkscape:window-width="1920"
   inkscape:window-height="1049"
   id="namedview35"
   showgrid="false"
   inkscape:zoom="0.65013774"
   inkscape:cx="270.71187"
   inkscape:cy="243.02542"
   inkscape:window-x="0"
   inkscape:window-y="0"
   inkscape:window-maximized="1"
   inkscape:current-layer="Capa_1" />
<rect
   style="opacity:1;fill:#ffffff;fill-opacity:1;stroke:none;stroke-width:8.95199966;stroke-miterlimit:4;stroke-dasharray:none;stroke-opacity:1"
   id="rect827"
   width="522.96613"
   height="519.88983"
   x="-1.5381356"
   y="-0.66101778" /><path
   d="m 350.92055,168.73554 c 0,10.48443 -7.63284,16.8607 -13.20636,21.53994 -2.1108,1.77235 -6.03972,5.00625 -6.02924,6.2142 0.0381,4.73834 -3.77161,8.52235 -8.51091,8.52235 -0.0238,0 -0.0477,0 -0.0715,0 -4.70593,0 -8.54047,-3.66769 -8.5786,-8.38221 -0.0753,-9.29269 6.70614,-14.85762 12.15572,-19.43294 4.27595,-3.59047 7.07987,-6.11695 7.07987,-8.42892 0,-4.68019 -3.80784,-8.48803 -8.48803,-8.48803 -4.6821,0 -8.49089,3.80784 -8.49089,8.48803 0,4.7393 -3.84121,8.58051 -8.58051,8.58051 -4.7393,0 -8.58051,-3.84121 -8.58051,-8.58051 0,-14.14259 11.50647,-25.64905 25.65,-25.64905 14.1445,-9.5e-4 25.65096,11.4731 25.65096,25.61663 z m -27.58062,44.19725 c -4.7393,0 -8.39078,3.84121 -8.39078,8.58051 v 0.0658 c 0,4.7393 3.65244,8.5481 8.39078,8.5481 4.73835,0 8.58051,-3.87458 8.58051,-8.61388 0,-4.7393 -3.84121,-8.58051 -8.58051,-8.58051 z m -172.95349,59.77087 c -4.7393,0 -8.58051,3.84121 -8.58051,8.58051 0,4.7393 3.84121,8.58051 8.58051,8.58051 h 0.71504 c 4.7393,0 8.58051,-3.84121 8.58051,-8.58051 0,-4.7393 -3.84121,-8.58051 -8.58051,-8.58051 z m 29.82108,0 c -4.7393,0 -8.58051,3.84121 -8.58051,8.58051 0,4.7393 3.84121,8.58051 8.58051,8.58051 h 0.71409 c 4.7393,0 8.58051,-3.84121 8.58051,-8.58051 0,-4.7393 -3.84121,-8.58051 -8.58051,-8.58051 z M 432.2161,135.65482 v 96.57935 c 0,22.86705 -18.33559,41.42288 -41.20265,41.42288 h -111.2768 c -2.17564,0 -3.96706,-0.0124 -5.46578,-0.0439 -1.57024,-0.0324 -3.33782,-0.0448 -4.02712,0.0315 -0.71791,0.4767 -2.47786,2.08888 -4.17394,3.65149 -0.67214,0.61875 -1.43295,1.29947 -2.25382,2.04883 l -31.48284,28.69513 c -2.51123,2.29099 -6.22659,2.884 -9.33654,1.51303 -3.10996,-1.37193 -5.29322,-4.45138 -5.29322,-7.85021 v -90.9696 H 127.8178 c -13.40657,0 -24.52119,10.98591 -24.52119,24.39057 v 96.57934 c 0,13.40562 11.11557,23.94534 24.52119,23.94534 h 124.29724 c 2.14036,0 4.14248,0.98295 5.7232,2.42638 l 25.64904,23.64788 v -81.55201 c 0,-4.7393 3.84121,-8.58051 8.58051,-8.58051 4.7393,0 8.58051,3.84121 8.58051,8.58051 v 101.00021 c 0,3.39884 -1.94491,6.43252 -5.05582,7.80445 -1.11261,0.491 -2.22998,0.68453 -3.39979,0.68453 -2.10127,0 -4.17394,-0.86281 -5.78613,-2.33485 l -37.6179,-34.51652 H 127.8178 c -22.86801,0 -41.682207,-18.23835 -41.682207,-41.10636 v -96.57839 c 0,-22.86705 18.814197,-41.55159 41.682207,-41.55159 h 89.88559 v -57.91748 c 0,-22.86801 18.95815,-41.235057 41.82616,-41.235057 H 391.0144 c 22.86611,0 41.2017,18.367047 41.2017,41.235057 z m -17.16102,0 c 0,-13.40561 -10.63697,-24.07404 -24.04163,-24.07404 h -131.4839 c -13.40561,0 -24.66515,10.66843 -24.66515,24.07404 v 66.57808 80.02182 l 17.25159,-15.59079 c 0.79894,-0.72934 1.69418,-1.39671 2.34725,-1.99925 7.87786,-7.25911 9.89332,-8.41939 20.16896,-8.20774 1.40148,0.0296 3.07087,0.04 5.10445,0.04 h 111.2768 c 13.40466,0 24.04163,-10.8572 24.04163,-24.26186 z"
   id="path2"
   inkscape:connector-curvature="0"
   style="stroke-width:0.95338982" />
<g
   id="g4"
   transform="translate(0,149)">
</g>
<g
   id="g6"
   transform="translate(0,149)">
</g>
<g
   id="g8"
   transform="translate(0,149)">
</g>
<g
   id="g10"
   transform="translate(0,149)">
</g>
<g
   id="g12"
   transform="translate(0,149)">
</g>
<g
   id="g14"
   transform="translate(0,149)">
</g>
<g
   id="g16"
   transform="translate(0,149)">
</g>
<g
   id="g18"
   transform="translate(0,149)">
</g>
<g
   id="g20"
   transform="translate(0,149)">
</g>
<g
   id="g22"
   transform="translate(0,149)">
</g>
<g
   id="g24"
   transform="translate(0,149)">
</g>
<g
   id="g26"
   transform="translate(0,149)">
</g>
<g
   id="g28"
   transform="translate(0,149)">
</g>
<g
   id="g30"
   transform="translate(0,149)">
</g>
<g
   id="g32"
   transform="translate(0,149)">
</g>
</svg>